<svg xmlns="http://www.w3.org/2000/svg" viewBox="0 0 744.1 1052.4"><path d="m351.5 441c3.8 4.1 14.6-11.3 16 4.6 25.6 161.7 132.2 350.5 276.2 437.1l-131.5-0.1c16.2-25-17.5-84-23.6-94.6-73-126.9-108.1-157.3-137.1-347z" style="fill:#520;stroke-width:2px;stroke:#000"/><path d="m484.1 117.3-1.1 3.5c-2.5 11.7-5.2 23.4-7.9 35-4.1-10.5-8.5-20.9-13.5-30.9-4.7 13.2-6.2 27.9-5.3 42.2-6.6-10.9-13.8-21.2-20.8-31.6-0.3 10.5 0.2 21 1.2 31.4-4.4-6.8-8.8-13.6-13.2-20.4-2.2 13.2-2.7 26.8-2.9 40.3-5.4-9.2-10.9-18.4-16.7-27.2-4 20.2-7.4 40.8-7.9 61.6-6-13.7-13.2-26.7-20.6-39.3-6.9 20.1-12.8 41.5-12.3 63.5 0.8 1.1-0.9 3.3-1.3 1.3-7.5-13.4-14.5-27.4-23.6-39.4-3.1 16.6-4.4 33.8-2.3 50.7 0 0 0 0.1 0 0.1 0-0.1-0.1-0.1-0.1-0.2-1.4-20.9-8.1-36.9-8.1-36.9-1.5 4.7-3.2 11-4.7 18-2.1-23.5-10.1-42-10.1-42-2.6 8.6-5.7 22.1-7.4 36.4-3.6-30.4-18.8-55.4-18.8-55.4-1.2 7.2-2.2 17.5-2.5 28.8-5.5-25.5-18.1-45.4-18.1-45.4-0.6 4.7-1.2 10.7-1.4 17.5-5.6-15.5-13.1-25.9-13.1-25.9-0.4 3.5-0.7 7.7-1 12.4-4.3-11.3-9.5-18.5-9.5-18.5-0.7 4.9-1.3 11.6-1.5 19-6.6-14.7-18.3-22.5-18.3-22.5 0.4 4.7 1.4 11.1 3.1 17.8-7.7-7.6-15.6-13.8-21.2-17.4 0 0 4.2 19.7 15.2 37.8-8-2.8-16.7-3.6-22.1-3.4 0 0 8.3 14.4 21.4 20.3-6.5 0.8-12.4 2.3-16.6 3.7 0 0 10.8 10.1 25 13.9-6.3 1.4-12 3.2-16.2 4.9 0 0 12.8 11.8 30.1 15.6-6.7 2.2-12.6 4.6-17.1 6.9 0 0 16 11.1 36.3 13.4-10 2.8-19.1 6.6-25.2 9.9 0 0 12 7.7 28.2 11.3-6.2 2.4-11.7 5.1-15.8 7.5 0 0 5.7 3.4 14.3 6.6-9.7-0.4-16 0.6-16 0.6 4.4 5.1 10.4 11.3 17.4 17.5-27.6-8.4-52.9-4-52.9-4 8.2 9 21.6 21.3 36.6 31.5-36.3-9.4-73.1 4.2-73.1 4.2 7.5 5.8 18.4 12.9 30.9 19.2-31.8-3.5-61.4 8.3-61.4 8.3 4.9 3.5 11.4 7.5 18.8 11.4-20.7 1.8-36.7 9.5-36.7 9.5 3.6 2.5 8.2 5.3 13.4 8.1-15.1 1.8-26.2 7-26.2 7 5.1 3.8 12.3 8.3 20.5 12.4-20.3 4-35.8 20.2-35.8 20.2 5.5 1.7 13.3 3.2 21.7 3.8-13 9.5-24.5 20.1-31.8 28 0 0 24.5 2.7 51.2-7.1-7.7 12.4-13.6 27.2-16.5 36.8 0 0 20.9-7 35.1-26.8-2.8 11.7-4.6 22.8-5.4 30.8 0 0 17.5-13.6 29.9-36.4-2.1 11.7-3.3 22.5-3.9 30.8 0 0 20.6-16.3 34.9-44.4-1.4 12.7-2.1 24.4-2.1 33.3 0 0 21.6-22.2 35.9-56.3-2.6 18.8-3.6 36.6-3.4 49 0 0 4.5-4.9 10.7-13.5 5.9-0.9 11.7-1.5 17.4-2 0 1.2 0.1 2.5 0.1 3.6 0 0 1.1-1.4 3.1-3.8 5.1-0.4 10.2-0.7 15.3-0.9-16.3 5.8-33.3 14.6-49.5 32.5-0.9-0.2-2.3 3.4-0.9 3 6.7-1.1 13.5-3.3 20.2-4.5-13.2 8.5-26.9 23-37.8 44.1-1.1 0.8-0.1 3 0.6 1.4 6.5-4 12.9-7.6 19.4-10.8-10.8 10.6-20.9 28-27.6 47.9 7-5.3 14.1-10.6 21.1-16-8.7 14.9-14 35.1-15.9 53.5-1.3 2.8 0.4 6.3 1.8 3.2 7.9-9.8 15.7-20.3 23.3-31-0.1 15.6 0.2 31 1.3 45.8 0.9 14.7 2.1 29.2 2.9 44.1 2.8-1.6 3.5-7.7 5.3-11.4 5.6-15.3 10.5-31.3 14.8-47.4 2.7 13.3 4.9 27.3 6.6 41.7 7.8-19.7 12.7-42.3 13.3-62.7 4.6 12.8 9 26 12.3 40.8 2.7-14.6 4-29.1 4.5-43.1 2.7 8.2 4.7 17.3 6.8 26.4 3.8-17.6 5.8-35.1 7.1-52.2 3 10.7 5.5 22.2 7.8 33.9 5.4-26 8.4-52 9.3-76.9 3.2 15 6.3 30 9.4 45 4.8-20.8 7.4-41.7 8.3-61.7 2.1 5.5 4.5 10.7 7.4 15.7 1.6 2.7 3.1 5.6 5.3 7.7 2-9.7 2.3-19.7 2.8-29.7 0-0.3 0.1-0.6 0.1-0.9 0.1-1.1 0.1-2.3 0.2-3.4 0 0 0-0.1 0-0.1 0-0.3 0-0.5 0-0.8 0.2-0.8 0.8 1.4 1.1 2.2 8 22.4 22.1 40.3 36.7 56.6 1.7 1.3 2.6 4.2 4.8 4.3 1.3-2.6 0.5-5.8 1-8.6 0-4.9-0.2-9.9-0.4-14.8 11.2 14 22.9 27.4 34.7 40.7 0.3-6.5 0.7-13.1 0.6-19.6 7.3 10.2 14.2 20.8 21.3 31.1 1.6-10.2 2.6-20.7 1.4-31 10.6 13.8 21.5 27.2 31.9 41.2-0.4-10.6-1.3-21.4-4.4-31.5l26.3 37.7c-0.1-24.4-8.2-48.5-21.9-66.2 3.2-0.7 5.8 2.5 8.9 2.9 6.3 2.5 12.5 5.6 18.8 8.3-8-15.7-20.4-28-34.4-34.8 6.9 0 13.7 0 20.6 0-12.8-11.3-27.9-18.3-43.4-22.3l22.8-2.4c-9-5.4-18.3-9.7-27.9-13.4 1.2-6.1 2.5-12.2 3.4-18.4 0.4-2.1 0.7-4.2 1-6.3 10.7 15.3 23.6 27.8 36.5 40.1 5.2-13.6 7.3-28.5 9.5-43.1 8.1 14.6 15.5 29.9 23 45 2.2-3.3 2.2-7.8 3.6-11.7 2.9-11.5 4.9-23.4 6.3-35.3 7.1 16.2 15.5 31.7 24.1 46.8 3.1-19.2 4.3-39.2 1-58.5 13.7 11 25.9 24.5 37.8 38.3-2.1-18.9-6.7-37.7-15.2-53.8 5.8 3.1 11.5 6.2 17.2 9.5-5.4-15.5-14.2-30.3-27-37.5 5.4-1.1 11-1 16.5-1.5 2.3 0.4 0.7-1-0.3-1.9-6.7-6.3-14.4-11-22.6-13.6 4.2-0.5 8.5-1.1 12.7-1.6-12.3-8.6-26.6-12.4-40.7-12.4 6.8-2.4 13.7-4.5 20.6-6.4-20.6-6.6-42.4-4.2-63 1.3-5.5 1.4-11 3.3-16.5 4.9 12.8-8.1 26-15.1 39.3-21.8-32 0.3-63.4 9.1-94.8 15.2 9.2-5.8 18.5-11.4 27.6-17.5 6.2-4.2 12.4-8.4 18.3-13.1-11.1 0.6-22.2 1.2-33.3 1.8l-16.7-4.5c2.2-1.4 4.4-2.9 6.6-4.5 12.9-1.6 25.7-4.2 38.2-8.4-8.6-1.9-17.3-3.6-25.9-5.7 16-1.4 32-5.3 46.8-12.9-13.6-1.7-27.2-3.7-40.7-5.9 18.3-1.2 37-5.3 52.8-17.2 1-0.1 2.7-2.2 1.1-2.6-7.5 0.1-15-0.8-22.5-1.4 14.3-3.9 28.1-13.6 36-29l-20.2 2.7c10.3-6.3 18.5-17.6 22.6-30.8l-19 5c8-10.1 10.3-24.9 9.8-38.5 0.6-1.4-1-3.6-1.9-1.9-6.1 5.6-12.4 10.8-18.5 16.5-1.3-1.3 0-3.5-0.6-5.2-1.5-22.2-8-43.3-15.6-63.3zm-229.5 94.6c0.2 0.8 0.4 1.5 0.7 2.3-0.4-0.1-0.8-0.1-1.2-0.2 0.2-0.7 0.4-1.4 0.6-2.1zm206.1 23.5c1.7 0.8-1.8 1.2 0 0zm-172.1 16.9c0.1 0.2 0.1 0.4 0.2 0.6-0.5 0-1-0.1-1.4-0.1 0.4-0.2 0.8-0.4 1.3-0.5zm-31.2 124.4c0.3 0 0.5 0 0.8 0-0.3 0.8-0.7 1.6-1 2.4 0-0.8 0.1-1.6 0.1-2.5zm161.9 14.5c0.3-0.1-0.2 0.2 0 0zm87 7.6c0.7 0.1 0.8 2.7-0.4 1.8-0.6-0.1-0.6-1.1-0.2-1.5 0.2-0.3 0.4-0.4 0.6-0.4zm-313.8 16.3c1 0 2 0.1 2.9 0-0.3 0.7-0.6 1.3-0.9 2-0.7-0.7-1.3-1.4-2-2.1zm78.2 20.7c-0.4 5.6-0.6 11-0.7 15.9-5.7 3.9-11.4 8.3-17 13.3 5.3-7.4 11.7-17.4 17.7-29.3zm19.4 2.5c0.9 0 1.8 0 2.7 0-1.3 0.6-2.6 1.3-3.9 2 0.4-0.7 0.8-1.3 1.2-2zm135.9 4.1c1 2.5 2.1 5 3.2 7.4-1.2-0.4-2.3-0.8-3.5-1.3 0.1-2 0.2-4.1 0.3-6.1zm13.8 25c0.2 0.3 0.4 0.5 0.6 0.8-0.8-0.2-1.6-0.4-2.4-0.6 0.6-0.1 1.2-0.1 1.8-0.2zm-19.4 24c0 0-0.5 0.2-0.3 0 0.2 0 0.2-0.1 0.3 0zm-133 21.5c0.1-0.1 0.1 0 0.2 0.3-0.4 1.4-0.3-0.1-0.2-0.3z" style="fill:#445016;stroke-width:0.5px;stroke:#000"/><path d="m504.9 198.7c-20.2 6-38.5 20.8-51.6 40.5 5.7-12.4 12.6-23.8 19.6-35.1-20.3 14.2-36.4 36.2-48 60.8 5.4-17 11.6-33.7 18.3-50-12.2 14.3-22.6 30.5-31.6 47.9l7.8-24.8c-9.7 13.1-18.8 27-27.6 41 1.5-4.8 2.9-9.6 4.3-14.4 1.4-6.3 4.2-12.1 4.7-18.7-14.2 19.7-29.5 38.4-41.5 60.2-5.9-11.2-10.9-18-10.9-18 0 8.7 0.6 21 2.1 34.2-11.9-26.7-27.8-45.5-27.8-45.5 0.6 6.4 1.6 14.9 3.3 24.2-14-29.4-32.4-50.9-32.4-50.9 1.2 11.8 4.3 29.8 9.3 48.4-19.2-37.9-49.1-65.9-49.1-65.9 2.2 9.6 6.1 23 11.2 37.4-19-31.2-43.4-53.1-43.4-53.1 1.6 6.2 3.9 14 6.9 22.7-14.2-18.4-28-29.7-28-29.7 1.2 4.5 2.9 10.1 5 16.1-10.6-13.2-20.1-21.1-20.1-21.1 1.6 6.5 4.2 15.2 7.6 24.7-15-17-32.3-23.9-32.3-23.9 2.8 5.8 7.2 13.8 12.3 21.9-12.7-7.7-25-13.4-33.3-16.6 0 0 14.6 24 36.3 44.2-10.6-1.4-21.2-0.1-27.4 1.6 0 0 16.7 16.1 34.9 20.2-7.2 2.7-13.4 6.2-17.5 9.2 0 0 17.5 10 35.8 11-6.7 3.4-12.4 7.3-16.5 10.6 0 0 20.7 11.6 42.7 11.9-6.7 4.6-12.4 9.3-16.5 13.4 0 0 24 9.9 48.8 7.5-10.3 6.2-19 13.5-24.5 19.4 0 0 17.8 6.6 38.3 6.8-6 4.8-11 9.7-14.6 13.8 0 0 17.1 5.9 36.9 5.9-17.4 5.2-29.8 12.4-29.8 12.4 5.1 1.6 12 3.3 19.7 4.7-27.4 5.7-50.3 19.3-50.3 19.3 9.4 2.7 24.3 5.5 40.4 6.3-35.8 8.7-67.6 33.2-67.6 33.2 8.1 0.8 19.7 1.1 32.6 0.3-30.5 10.8-55.9 31.1-55.9 31.1 5.3 0.3 12.1 0.4 19.8 0-19 9.8-32.5 21.7-32.5 21.7 3.9 0.2 8.7 0.2 14.1-0.1-13.8 7.5-23.2 15.7-23.2 15.7 5.5 0.4 13.2 0.5 21.6-0.1-18.3 11.2-29.6 28.7-29.6 28.7 5.4-1.2 13.1-3.3 21.1-6.4-10.3 11.9-19.1 23.9-24.4 32.4 0 0 23.5-8.3 46.6-26.1-4.8 11.7-7.5 24.2-8.4 32 0 0 18.2-13.5 27.7-32.9-0.4 9.2 0.1 17.4 1 23.2 0 0 13.7-16.5 21-37.2 0.3 8.8 1.2 16.7 2.4 22.6 0 0 16.1-19.7 24-44.8 1.1 9.3 2.8 17.5 4.5 23.6 0 0 16-24.1 22.7-53.3 1.2 13.9 3.7 26.4 6.3 34.8 0 0 11.2-18 18.6-41.5 1.6 8.5 3.6 16 5.5 21.6 0 0 12.3-20.6 19-46 2 8.8 4.5 16.6 6.8 22.3 0 0 11.3-19.6 16.1-44 2.3 6.6 4.8 12.3 7.1 16.9 2.6 6 5.4 11.9 8.4 17.6-0.3 1.9 2.7 2.3 2.1 0 0.1-10.4 0.4-20.8-0.2-31.2 6.6 16.8 14.4 33.3 25.4 46.4-0.3-8-1-16-2.2-23.9 8.9 17.1 20.7 31.8 34.6 42.7-0.8-16.1-4.3-31.7-8.8-46.8 12.4 15.3 28.8 24.2 45 31.5 3.7 1.6 7.4 3.2 11.1 4.8 1.3 0.4 3.2 0.7 3.4-1.6 0.2-2.9-1.5-5.4-1.8-8.2-2.3-8.5-5.5-16.7-9.7-24.1 17.8 10.6 36 20.3 52.1 34.4-1.2-9.6-3.2-19.1-5.9-28.3 10.5 9.3 20.4 19.6 29.3 31.1-0.4-7.9-1.8-15.7-2.9-23.5l18 30.5c-0.6-12.7-1.7-25.3-4.1-37.7 9.4 13.8 18.3 28.1 27.8 41.9-1.8-12.5-4.4-24.9-7.8-36.9 8.8 13.2 17.6 26.3 26.4 39.5-0.1-0.6-0.2-1.2-0.3-1.8-4.4-24-11.5-48-24.7-67-0.6-1-2.9-2.7-1.4-3.7 6.1 1.8 12 4.4 18.1 6.3 1.6 0.6 3.2 1.2 4.8 1.8-8.2-13.6-19.2-25.5-32.7-30.2 5.2-1.6 10.5-2.6 15.8-3.9-11.2-8.1-24.3-12.2-37.2-11.6 5.3-2.6 10.7-5.2 16.1-7.6-15.6-5.7-32.5-5-48.2-0.1l17.2-13.3c-20 0.1-39.4 7.1-57.8 16.2 9-8 18.1-16 27.1-24-15.3 2-30.1 7.3-44.9 11.9 5.5-5.1 10.9-10.2 16-15.8-15.1 2.3-30.2 5.2-45.3 7.6 1.9-1.8 3.8-3.6 5.6-5.4 1.6 0.3 3.1 0.5 4.7 0.7-0.5-1.3-1.1-2.5-1.7-3.8 2.3-2.4 4.6-4.9 6.9-7.4-3.6-0.3-7.2-0.6-10.8-0.9-1.7-3.5-3.4-6.9-5.2-10.3 9.7 4.3 19.9 6.7 30.3 6.8-6.4-11.5-12.2-23.5-19.4-34.3 12.6 6.8 26.5 9.3 40.2 9.8-4.8-8.6-9.7-17.1-14.6-25.6 13.8 4.6 28 7.1 42.3 7.2-5.5-8.6-11.2-16.8-17.1-25 14.5 6.2 29.5 10.1 44.4 14.6-6.3-9.8-13.5-18.6-20.6-27.5 17.9 6 35.9 11 54.1 15.1-12.2-12.5-24.9-24.6-39.1-33.4 23-0.3 45.9 3.2 68.7 5.7l4.6 0.4c-17.4-10.2-35-19.8-53.4-27-1-0.5-3.1-1-3.5-1.4 9.6-0.9 19.3-1.3 28.9-2-2.7-1.6-5.6-2.8-8.5-4.1-14.8-6.5-30.7-11-46.4-8.5l23.2-12.8c-11.5-1.3-23.1-0.6-34.3 2.3l14.1-9.5c-14.2 0.1-28.4 4.7-40.9 13 5.2-6.2 10.8-12.1 16.6-17.6zm-271.7 86.2c0.6 0.9 1.2 1.8 1.9 2.7-0.5 0-1 0.1-1.5 0.1-0.1-0.9-0.2-1.9-0.3-2.8zm152.1 38.1c0 0 0 0 0.1 0 0 0.2-0.1 0.1-0.1 0zm-92.7 4.5c0.2 0.3 0.3 0.5 0.5 0.8-0.6 0.1-1.2 0.2-1.7 0.3 0.4-0.3 0.8-0.7 1.2-1zm98.2 73.8c0 0 0.2 0.1 0 0.1 0-0.1 0-0.1 0-0.1zm54.9 27.1c0 0 0 0 0 0.1-0.2 0.7-0.1 0.1 0-0.1zm-150 22.5c-0.1 0.7-0.3 1.4-0.4 2.1-0.1-0.6-0.2-1.1-0.4-1.7 0.3-0.1 0.5-0.2 0.8-0.4zm-51.4 52.3c-0.2 0.6-0.3 1.2-0.4 1.8-0.8-0.2-1.5-0.4-2.3-0.6 0.9-0.4 1.8-0.8 2.7-1.2z" style="fill:#668000;stroke-width:0.4px;stroke:#000"/></svg>
